<mxfile host="app.diagrams.net" modified="2023-06-28T21:04:40.425Z" agent="Mozilla/5.0 (X11; Ubuntu; Linux x86_64; rv:109.0) Gecko/20100101 Firefox/111.0" etag="ArhU5ppkSLPgEdDw8SC_" version="21.5.2" type="device">
  <diagram name="Pagina-1" id="_A0a3fDH8UPBCs8FDtFC">
    <mxGraphModel dx="1965" dy="638" grid="1" gridSize="10" guides="1" tooltips="1" connect="1" arrows="1" fold="1" page="1" pageScale="1" pageWidth="827" pageHeight="1169" math="0" shadow="0">
      <root>
        <mxCell id="0" />
        <mxCell id="1" parent="0" />
        <mxCell id="TzjMQ3N4ce6UMIPQsBhc-9" value="" style="group" vertex="1" connectable="0" parent="1">
          <mxGeometry x="160" y="379" width="410" height="300" as="geometry" />
        </mxCell>
        <mxCell id="4nN7H0MX4P3YPpD1_MkD-6" value="\" style="ellipse;shape=cloud;whiteSpace=wrap;html=1;fillColor=none;" parent="TzjMQ3N4ce6UMIPQsBhc-9" vertex="1">
          <mxGeometry width="410" height="260" as="geometry" />
        </mxCell>
        <mxCell id="4nN7H0MX4P3YPpD1_MkD-8" value="&lt;div&gt;&lt;b style=&quot;font-size: 16px;&quot;&gt;CLOUD&lt;br&gt;&lt;/b&gt;&lt;/div&gt;&lt;div&gt;&lt;span style=&quot;font-size: 16px;&quot;&gt;&lt;i&gt;(&lt;/i&gt;&lt;/span&gt;&lt;span style=&quot;font-size: 16px;&quot;&gt;&lt;i&gt;Digital Ocean)&lt;br&gt;&lt;/i&gt;&lt;/span&gt;&lt;/div&gt;" style="text;html=1;align=center;verticalAlign=middle;resizable=0;points=[];autosize=1;strokeColor=none;fillColor=none;fontSize=16;" parent="TzjMQ3N4ce6UMIPQsBhc-9" vertex="1">
          <mxGeometry x="140" y="250" width="130" height="50" as="geometry" />
        </mxCell>
        <mxCell id="TzjMQ3N4ce6UMIPQsBhc-10" value="" style="image;html=1;image=img/lib/clip_art/computers/Database_128x128.png" vertex="1" parent="TzjMQ3N4ce6UMIPQsBhc-9">
          <mxGeometry x="175" y="100" width="60" height="60" as="geometry" />
        </mxCell>
        <mxCell id="TzjMQ3N4ce6UMIPQsBhc-8" value="" style="group" vertex="1" connectable="0" parent="TzjMQ3N4ce6UMIPQsBhc-9">
          <mxGeometry x="60" y="100" width="100" height="105" as="geometry" />
        </mxCell>
        <mxCell id="FvRSq7bl6SnpGXSyj17N-1" value="" style="aspect=fixed;perimeter=ellipsePerimeter;html=1;align=left;shadow=0;dashed=0;fontColor=default;labelBackgroundColor=#000000;fontSize=12;spacingTop=3;image;image=img/lib/ibm/applications/service_broker.svg;labelBorderColor=none;horizontal=1;verticalAlign=middle;labelPosition=right;verticalLabelPosition=middle;" parent="TzjMQ3N4ce6UMIPQsBhc-8" vertex="1">
          <mxGeometry x="20" width="60" height="60" as="geometry" />
        </mxCell>
        <mxCell id="TzjMQ3N4ce6UMIPQsBhc-7" value="&lt;div&gt;MQTT Broker&lt;/div&gt;&lt;div&gt;&lt;i&gt;(Mosquitto)&lt;/i&gt;&lt;/div&gt;" style="text;html=1;align=center;verticalAlign=middle;resizable=0;points=[];autosize=1;strokeColor=none;fillColor=none;" vertex="1" parent="TzjMQ3N4ce6UMIPQsBhc-8">
          <mxGeometry y="65" width="100" height="40" as="geometry" />
        </mxCell>
        <mxCell id="4nN7H0MX4P3YPpD1_MkD-37" value="" style="group" parent="TzjMQ3N4ce6UMIPQsBhc-9" vertex="1" connectable="0">
          <mxGeometry x="259" y="99" width="111" height="110" as="geometry" />
        </mxCell>
        <mxCell id="4nN7H0MX4P3YPpD1_MkD-16" value="" style="shape=image;verticalLabelPosition=bottom;labelBackgroundColor=default;verticalAlign=top;aspect=fixed;imageAspect=0;image=https://nodered.org/about/resources/media/node-red-hexagon.png;" parent="4nN7H0MX4P3YPpD1_MkD-37" vertex="1">
          <mxGeometry x="15.443999999999962" width="57.11200000000001" height="66" as="geometry" />
        </mxCell>
        <mxCell id="4nN7H0MX4P3YPpD1_MkD-20" value="&lt;div style=&quot;font-size: 10px;&quot;&gt;Data flow managemet &lt;br style=&quot;font-size: 10px;&quot;&gt;&lt;/div&gt;&lt;div style=&quot;font-size: 10px;&quot;&gt;&lt;i style=&quot;font-size: 10px;&quot;&gt;(Node-RED)&lt;/i&gt;&lt;/div&gt;" style="text;html=1;align=center;verticalAlign=middle;resizable=0;points=[];autosize=1;strokeColor=none;fillColor=none;fontSize=10;" parent="4nN7H0MX4P3YPpD1_MkD-37" vertex="1">
          <mxGeometry x="-14" y="70" width="120" height="40" as="geometry" />
        </mxCell>
        <mxCell id="TzjMQ3N4ce6UMIPQsBhc-11" value="&lt;div&gt;Database&lt;/div&gt;&lt;div&gt;&lt;i&gt;(MySQL)&lt;/i&gt;&lt;br&gt;&lt;/div&gt;" style="text;html=1;align=center;verticalAlign=middle;resizable=0;points=[];autosize=1;strokeColor=none;fillColor=none;" vertex="1" parent="TzjMQ3N4ce6UMIPQsBhc-9">
          <mxGeometry x="170" y="169" width="70" height="40" as="geometry" />
        </mxCell>
        <mxCell id="4nN7H0MX4P3YPpD1_MkD-32" value="" style="edgeStyle=orthogonalEdgeStyle;rounded=0;orthogonalLoop=1;jettySize=auto;html=1;" parent="1" source="4nN7H0MX4P3YPpD1_MkD-1" target="4nN7H0MX4P3YPpD1_MkD-31" edge="1">
          <mxGeometry relative="1" as="geometry" />
        </mxCell>
        <mxCell id="4nN7H0MX4P3YPpD1_MkD-1" value="&lt;font color=&quot;#ff0810&quot;&gt;Arduino board&lt;/font&gt;" style="rounded=1;whiteSpace=wrap;html=1;" parent="1" vertex="1">
          <mxGeometry x="310" y="160" width="120" height="60" as="geometry" />
        </mxCell>
        <mxCell id="4nN7H0MX4P3YPpD1_MkD-23" value="&lt;b&gt;DEVICE&lt;/b&gt;" style="text;html=1;align=center;verticalAlign=middle;resizable=0;points=[];autosize=1;strokeColor=none;fillColor=none;" parent="1" vertex="1">
          <mxGeometry x="335" y="130" width="70" height="30" as="geometry" />
        </mxCell>
        <mxCell id="4nN7H0MX4P3YPpD1_MkD-30" style="edgeStyle=orthogonalEdgeStyle;rounded=0;orthogonalLoop=1;jettySize=auto;html=1;entryX=0;entryY=0.5;entryDx=0;entryDy=0;" parent="1" source="4nN7H0MX4P3YPpD1_MkD-29" target="4nN7H0MX4P3YPpD1_MkD-1" edge="1">
          <mxGeometry relative="1" as="geometry" />
        </mxCell>
        <mxCell id="4nN7H0MX4P3YPpD1_MkD-29" value="SENSING" style="ellipse;whiteSpace=wrap;html=1;aspect=fixed;fillColor=none;" parent="1" vertex="1">
          <mxGeometry x="190" y="150" width="80" height="80" as="geometry" />
        </mxCell>
        <mxCell id="4nN7H0MX4P3YPpD1_MkD-31" value="ACTUATING" style="ellipse;whiteSpace=wrap;html=1;rounded=1;" parent="1" vertex="1">
          <mxGeometry x="490" y="150" width="80" height="80" as="geometry" />
        </mxCell>
        <mxCell id="TzjMQ3N4ce6UMIPQsBhc-13" value="" style="shape=flexArrow;endArrow=classic;html=1;rounded=0;" edge="1" parent="1">
          <mxGeometry width="50" height="50" relative="1" as="geometry">
            <mxPoint x="300" y="240" as="sourcePoint" />
            <mxPoint x="300" y="390" as="targetPoint" />
          </mxGeometry>
        </mxCell>
        <mxCell id="TzjMQ3N4ce6UMIPQsBhc-19" style="edgeStyle=orthogonalEdgeStyle;rounded=0;orthogonalLoop=1;jettySize=auto;html=1;targetPerimeterSpacing=0;sourcePerimeterSpacing=12;startArrow=classic;startFill=1;" edge="1" parent="1" source="TzjMQ3N4ce6UMIPQsBhc-17" target="4nN7H0MX4P3YPpD1_MkD-6">
          <mxGeometry relative="1" as="geometry" />
        </mxCell>
        <mxCell id="TzjMQ3N4ce6UMIPQsBhc-20" value="Subscribe/Publish" style="text;html=1;align=center;verticalAlign=middle;resizable=0;points=[];autosize=1;strokeColor=none;fillColor=none;" vertex="1" parent="1">
          <mxGeometry x="55" y="477" width="120" height="30" as="geometry" />
        </mxCell>
        <mxCell id="TzjMQ3N4ce6UMIPQsBhc-21" value="MQTT/TLS" style="text;html=1;align=center;verticalAlign=middle;resizable=0;points=[];autosize=1;strokeColor=none;fillColor=none;" vertex="1" parent="1">
          <mxGeometry x="70" y="511" width="80" height="30" as="geometry" />
        </mxCell>
        <mxCell id="TzjMQ3N4ce6UMIPQsBhc-22" value="MQTT/TLS" style="text;html=1;align=center;verticalAlign=middle;resizable=0;points=[];autosize=1;strokeColor=none;fillColor=none;fontSize=15;" vertex="1" parent="1">
          <mxGeometry x="315" y="290" width="100" height="30" as="geometry" />
        </mxCell>
        <mxCell id="TzjMQ3N4ce6UMIPQsBhc-23" value="" style="shape=flexArrow;endArrow=classic;html=1;rounded=0;" edge="1" parent="1">
          <mxGeometry width="50" height="50" relative="1" as="geometry">
            <mxPoint x="430" y="390" as="sourcePoint" />
            <mxPoint x="430" y="240" as="targetPoint" />
          </mxGeometry>
        </mxCell>
        <mxCell id="TzjMQ3N4ce6UMIPQsBhc-24" value="Publish sensed data" style="text;html=1;strokeColor=none;fillColor=none;align=center;verticalAlign=middle;whiteSpace=wrap;rounded=0;" vertex="1" parent="1">
          <mxGeometry x="220" y="290" width="70" height="30" as="geometry" />
        </mxCell>
        <mxCell id="TzjMQ3N4ce6UMIPQsBhc-25" value="&lt;div&gt;Subscribe&lt;/div&gt;&lt;div&gt;for actuation purpose&lt;br&gt;&lt;/div&gt;" style="text;html=1;strokeColor=none;fillColor=none;align=center;verticalAlign=middle;whiteSpace=wrap;rounded=0;" vertex="1" parent="1">
          <mxGeometry x="450" y="290" width="120" height="30" as="geometry" />
        </mxCell>
        <mxCell id="TzjMQ3N4ce6UMIPQsBhc-28" value="" style="endArrow=oval;html=1;rounded=0;endFill=1;targetPerimeterSpacing=10;" edge="1" parent="1" source="4nN7H0MX4P3YPpD1_MkD-6" target="TzjMQ3N4ce6UMIPQsBhc-27">
          <mxGeometry relative="1" as="geometry">
            <mxPoint x="600.0003813962035" y="512.8390935923444" as="sourcePoint" />
            <mxPoint x="710" y="500" as="targetPoint" />
          </mxGeometry>
        </mxCell>
        <mxCell id="TzjMQ3N4ce6UMIPQsBhc-29" value="Expose" style="edgeLabel;resizable=0;html=1;align=center;verticalAlign=middle;fontStyle=2;fontSize=13;" connectable="0" vertex="1" parent="TzjMQ3N4ce6UMIPQsBhc-28">
          <mxGeometry relative="1" as="geometry" />
        </mxCell>
        <mxCell id="TzjMQ3N4ce6UMIPQsBhc-30" value="" style="group" vertex="1" connectable="0" parent="1">
          <mxGeometry x="-70" y="459" width="128" height="100" as="geometry" />
        </mxCell>
        <mxCell id="TzjMQ3N4ce6UMIPQsBhc-18" value="" style="group;fillColor=none;rounded=1;strokeColor=#55FF00;strokeWidth=0;container=0;" vertex="1" connectable="0" parent="TzjMQ3N4ce6UMIPQsBhc-30">
          <mxGeometry width="128" height="100" as="geometry" />
        </mxCell>
        <mxCell id="TzjMQ3N4ce6UMIPQsBhc-12" value="" style="group" vertex="1" connectable="0" parent="TzjMQ3N4ce6UMIPQsBhc-30">
          <mxGeometry x="19" y="15" width="90" height="85" as="geometry" />
        </mxCell>
        <mxCell id="4nN7H0MX4P3YPpD1_MkD-13" value="" style="dashed=0;outlineConnect=0;html=1;align=center;labelPosition=center;verticalLabelPosition=bottom;verticalAlign=top;shape=mxgraph.weblogos.android;fillColor=#A4CA39;strokeColor=none" parent="TzjMQ3N4ce6UMIPQsBhc-12" vertex="1">
          <mxGeometry x="21.120000000000005" width="42.25" height="50" as="geometry" />
        </mxCell>
        <mxCell id="4nN7H0MX4P3YPpD1_MkD-15" value="Android APP" style="text;html=1;align=center;verticalAlign=middle;resizable=0;points=[];autosize=1;strokeColor=none;fillColor=none;" parent="TzjMQ3N4ce6UMIPQsBhc-12" vertex="1">
          <mxGeometry y="55" width="90" height="30" as="geometry" />
        </mxCell>
        <mxCell id="TzjMQ3N4ce6UMIPQsBhc-17" value="" style="rounded=1;whiteSpace=wrap;html=1;labelBackgroundColor=none;fillColor=none;strokeWidth=1;strokeColor=#57e389;" vertex="1" parent="TzjMQ3N4ce6UMIPQsBhc-30">
          <mxGeometry width="128" height="100" as="geometry" />
        </mxCell>
        <mxCell id="TzjMQ3N4ce6UMIPQsBhc-32" value="" style="group" vertex="1" connectable="0" parent="1">
          <mxGeometry x="690" y="477" width="80" height="99.60000000000002" as="geometry" />
        </mxCell>
        <mxCell id="TzjMQ3N4ce6UMIPQsBhc-27" value="" style="image;aspect=fixed;html=1;points=[];align=center;fontSize=12;image=img/lib/azure2/other/Azure_Monitor_Dashboard.svg;" vertex="1" parent="TzjMQ3N4ce6UMIPQsBhc-32">
          <mxGeometry x="6" width="68" height="63.2" as="geometry" />
        </mxCell>
        <mxCell id="TzjMQ3N4ce6UMIPQsBhc-31" value="Dashboard" style="text;html=1;align=center;verticalAlign=middle;resizable=0;points=[];autosize=1;strokeColor=none;fillColor=none;" vertex="1" parent="TzjMQ3N4ce6UMIPQsBhc-32">
          <mxGeometry y="69.60000000000002" width="80" height="30" as="geometry" />
        </mxCell>
      </root>
    </mxGraphModel>
  </diagram>
</mxfile>
